<svg id="Layer_1" data-name="Layer 1" xmlns="http://www.w3.org/2000/svg" xmlns:xlink="http://www.w3.org/1999/xlink" viewBox="0 0 300 114"><defs><linearGradient id="linear-gradient" x1="128.47" y1="71.11" x2="74.29" y2="27.9" gradientUnits="userSpaceOnUse"><stop offset="0" stop-color="#11006c"/><stop offset="0.17" stop-color="#16187a"/><stop offset="0.52" stop-color="#22579d"/><stop offset="0.99" stop-color="#34b3d1"/></linearGradient><linearGradient id="linear-gradient-2" x1="129.24" y1="70.13" x2="75.07" y2="26.93" xlink:href="#linear-gradient"/><linearGradient id="linear-gradient-3" x1="138.53" y1="58.49" x2="84.35" y2="15.29" xlink:href="#linear-gradient"/><linearGradient id="linear-gradient-4" x1="137.39" y1="59.92" x2="83.21" y2="16.72" xlink:href="#linear-gradient"/><linearGradient id="linear-gradient-5" x1="135.36" y1="62.47" x2="81.18" y2="19.27" xlink:href="#linear-gradient"/><linearGradient id="linear-gradient-6" x1="123.59" y1="77.22" x2="69.41" y2="34.02" xlink:href="#linear-gradient"/><linearGradient id="linear-gradient-7" x1="134.67" y1="63.33" x2="80.49" y2="20.13" xlink:href="#linear-gradient"/><linearGradient id="linear-gradient-8" x1="145.3" y1="50" x2="91.14" y2="6.81" xlink:href="#linear-gradient"/><linearGradient id="linear-gradient-9" x1="145.99" y1="49.14" x2="91.81" y2="5.93" xlink:href="#linear-gradient"/><linearGradient id="linear-gradient-10" x1="111.88" y1="91.91" x2="57.7" y2="48.7" xlink:href="#linear-gradient"/><linearGradient id="linear-gradient-11" x1="144.32" y1="51.23" x2="90.14" y2="8.03" xlink:href="#linear-gradient"/><linearGradient id="linear-gradient-12" x1="119.88" y1="81.88" x2="65.7" y2="38.68" xlink:href="#linear-gradient"/><linearGradient id="linear-gradient-13" x1="142.75" y1="53.2" x2="88.57" y2="9.99" xlink:href="#linear-gradient"/><linearGradient id="linear-gradient-14" x1="142.11" y1="54" x2="87.94" y2="10.79" xlink:href="#linear-gradient"/><linearGradient id="linear-gradient-15" x1="142.25" y1="53.82" x2="88.08" y2="10.62" xlink:href="#linear-gradient"/><linearGradient id="linear-gradient-16" x1="120" y1="81.73" x2="65.82" y2="38.52" xlink:href="#linear-gradient"/><linearGradient id="linear-gradient-17" x1="125.84" y1="74.41" x2="71.65" y2="31.2" xlink:href="#linear-gradient"/><linearGradient id="linear-gradient-18" x1="141.67" y1="54.55" x2="87.5" y2="11.35" xlink:href="#linear-gradient"/><linearGradient id="linear-gradient-19" x1="143.62" y1="52.11" x2="89.44" y2="8.91" xlink:href="#linear-gradient"/><linearGradient id="linear-gradient-20" x1="136.49" y1="61.04" x2="82.32" y2="17.84" xlink:href="#linear-gradient"/><linearGradient id="linear-gradient-21" x1="116.75" y1="85.8" x2="62.58" y2="42.59" xlink:href="#linear-gradient"/><linearGradient id="linear-gradient-22" x1="110.94" y1="93.08" x2="56.77" y2="49.88" xlink:href="#linear-gradient"/><linearGradient id="linear-gradient-23" x1="97.76" y1="109.61" x2="43.59" y2="66.41" xlink:href="#linear-gradient"/><linearGradient id="linear-gradient-24" x1="100.99" y1="105.57" x2="46.81" y2="62.36" xlink:href="#linear-gradient"/><linearGradient id="linear-gradient-25" x1="97.6" y1="109.81" x2="43.43" y2="66.61" xlink:href="#linear-gradient"/><linearGradient id="linear-gradient-26" x1="131.51" y1="67.29" x2="77.33" y2="24.09" xlink:href="#linear-gradient"/><linearGradient id="linear-gradient-27" x1="118.3" y1="83.84" x2="64.12" y2="40.64" xlink:href="#linear-gradient"/><linearGradient id="linear-gradient-28" x1="109.32" y1="95.1" x2="55.15" y2="51.9" xlink:href="#linear-gradient"/><linearGradient id="linear-gradient-29" x1="108.66" y1="95.95" x2="54.48" y2="52.74" xlink:href="#linear-gradient"/><linearGradient id="linear-gradient-30" x1="108.19" y1="96.54" x2="54.01" y2="53.33" xlink:href="#linear-gradient"/><linearGradient id="linear-gradient-31" x1="112.23" y1="91.45" x2="58.06" y2="48.25" xlink:href="#linear-gradient"/><linearGradient id="linear-gradient-32" x1="116.63" y1="85.96" x2="62.45" y2="42.75" xlink:href="#linear-gradient"/><linearGradient id="linear-gradient-33" x1="111.9" y1="91.84" x2="57.73" y2="48.64" xlink:href="#linear-gradient"/><linearGradient id="linear-gradient-34" x1="127.42" y1="72.42" x2="73.24" y2="29.22" xlink:href="#linear-gradient"/><linearGradient id="linear-gradient-35" x1="126.68" y1="73.34" x2="72.5" y2="30.14" xlink:href="#linear-gradient"/><linearGradient id="linear-gradient-36" x1="111.97" y1="91.78" x2="57.8" y2="48.58" xlink:href="#linear-gradient"/><linearGradient id="linear-gradient-37" x1="122.45" y1="78.64" x2="68.28" y2="35.44" xlink:href="#linear-gradient"/><linearGradient id="linear-gradient-38" x1="121.77" y1="79.51" x2="67.59" y2="36.3" xlink:href="#linear-gradient"/><linearGradient id="linear-gradient-39" x1="118.01" y1="84.25" x2="63.83" y2="41.04" xlink:href="#linear-gradient"/><linearGradient id="linear-gradient-40" x1="119.41" y1="82.48" x2="65.23" y2="39.27" xlink:href="#linear-gradient"/><linearGradient id="linear-gradient-41" x1="114.03" y1="89.21" x2="59.85" y2="46.01" xlink:href="#linear-gradient"/><linearGradient id="linear-gradient-42" x1="106.7" y1="98.44" x2="52.51" y2="55.22" xlink:href="#linear-gradient"/><linearGradient id="linear-gradient-43" x1="116.3" y1="86.36" x2="62.13" y2="43.16" xlink:href="#linear-gradient"/><linearGradient id="linear-gradient-44" x1="133.08" y1="65.31" x2="78.91" y2="22.11" xlink:href="#linear-gradient"/></defs><path d="M146.1,95.4H129.92l-3.32,5.39h-6l13.57-21.6a6,6,0,0,1,1.47-1.64,4.08,4.08,0,0,1,2.47-.65,4,4,0,0,1,2.44.65A6,6,0,0,1,142,79.19l13.5,21.6h-6Zm-13.74-4h11.3L138,82.18Z" style="fill:#0d0d1b"/><path d="M170.17,100.79a18.28,18.28,0,0,1-4.28-.43A6.3,6.3,0,0,1,163.14,99a5.14,5.14,0,0,1-1.45-2.47,13.91,13.91,0,0,1-.43-3.75V77.41h5.18V92.56a7.07,7.07,0,0,0,.18,1.73,2.52,2.52,0,0,0,.67,1.17,2.73,2.73,0,0,0,1.29.66,8.19,8.19,0,0,0,2,.21H184.5v4.46Z" style="fill:#0d0d1b"/><path d="M197.29,94.1v6.69h-5.2V77.41H210.8a18.26,18.26,0,0,1,4.18.4,6.08,6.08,0,0,1,2.71,1.3,4.9,4.9,0,0,1,1.45,2.35,12.18,12.18,0,0,1,.43,3.49v2a12.49,12.49,0,0,1-.41,3.47,4.44,4.44,0,0,1-1.42,2.19,6,6,0,0,1-2.69,1.15,23.67,23.67,0,0,1-4.25.32Zm17.07-8.94a3.29,3.29,0,0,0-.8-2.57,4.58,4.58,0,0,0-2.9-.69H197.29v8h13.44a4.61,4.61,0,0,0,2.84-.64,3.06,3.06,0,0,0,.79-2.48Z" style="fill:#0d0d1b"/><path d="M249.79,100.79V91.46H232.66v9.33h-5.21V77.41h5.21v9.53h17.13V77.41H255v23.38Z" style="fill:#0d0d1b"/><path d="M287.57,95.4H271.4l-3.33,5.39h-6l13.57-21.6a6,6,0,0,1,1.47-1.64,4.06,4.06,0,0,1,2.47-.65,4,4,0,0,1,2.43.65,6,6,0,0,1,1.48,1.64l13.5,21.6h-6Zm-13.74-4h11.31l-5.65-9.22Z" style="fill:#0d0d1b"/><polygon points="120.55 53.05 113.86 50.85 103.21 56.05 106.13 65.04 120.55 53.05" style="fill:url(#linear-gradient)"/><polygon points="111.75 50.33 98.36 47.18 102.65 54.77 111.75 50.33" style="fill:url(#linear-gradient-2)"/><polygon points="131.4 49.51 133.45 44.31 117.77 43.32 114.78 49.68 121.98 52.05 131.4 49.51" style="fill:url(#linear-gradient-3)"/><polygon points="116.57 42.01 115.92 37.08 106.16 39.24 109.28 43.23 116.57 42.01" style="fill:url(#linear-gradient-4)"/><polygon points="110.26 44.48 113.65 48.81 116.15 43.5 110.26 44.48" style="fill:url(#linear-gradient-5)"/><polygon points="96.46 46.65 80.45 34.19 85.75 55.98 101.21 55.05 96.46 46.65" style="fill:url(#linear-gradient-6)"/><polygon points="97.29 45.53 111.96 48.95 78.61 6.29 79.98 32.05 97.29 45.53" style="fill:url(#linear-gradient-7)"/><polygon points="142.62 50.15 145.71 49.89 145.74 48.05 143.08 48.9 142.62 50.15" style="fill:url(#linear-gradient-8)"/><polygon points="143.06 47.44 145.15 46.78 138.82 40.76 135.69 43.58 143.06 47.44" style="fill:url(#linear-gradient-9)"/><polygon points="77.99 77.4 80.65 79.48 87.42 67.86 84.78 57.77 77.99 77.4" style="fill:url(#linear-gradient-10)"/><polygon points="141.79 48.39 138.21 46.51 141.31 49.67 141.79 48.39" style="fill:url(#linear-gradient-11)"/><polygon points="100.35 56.5 86.1 57.36 88.54 66.69 100.35 56.5" style="fill:url(#linear-gradient-12)"/><polygon points="134.23 42.96 137.2 40.27 117.31 37.08 117.96 41.93 134.23 42.96" style="fill:url(#linear-gradient-13)"/><polygon points="134.7 44.92 132.8 49.74 139.09 52.62 140.62 50.95 134.7 44.92" style="fill:url(#linear-gradient-14)"/><polygon points="140.28 53.38 144.22 56.4 141.48 52.07 140.28 53.38" style="fill:url(#linear-gradient-15)"/><polygon points="89.37 67.8 104.13 75.68 105.08 66.31 102.03 56.89 89.37 67.8" style="fill:url(#linear-gradient-16)"/><polygon points="106.44 66.59 105.59 75.02 122.05 59.71 121.42 54.13 106.44 66.59" style="fill:url(#linear-gradient-17)"/><polygon points="146.45 58.17 146.78 60.45 148 57.78 146.45 58.17" style="fill:url(#linear-gradient-18)"/><polygon points="145.93 51.27 142.78 51.54 146.1 56.77 147.83 56.33 145.93 51.27" style="fill:url(#linear-gradient-19)"/><polygon points="122.71 53.3 123.35 58.98 137.47 53.41 131.85 50.84 122.71 53.3" style="fill:url(#linear-gradient-20)"/><polygon points="78.86 33.52 47.88 52.94 84.32 55.94 78.86 33.52" style="fill:url(#linear-gradient-21)"/><polygon points="81.95 79.99 85.62 80.59 102.73 76.51 88.41 68.87 81.95 79.99" style="fill:url(#linear-gradient-22)"/><polygon points="77.34 78.66 66.56 96.59 72.6 104.25 80.04 80.77 77.34 78.66" style="fill:url(#linear-gradient-23)"/><polygon points="86.58 105.78 92.01 100.44 85.93 81.86 86.58 105.78" style="fill:url(#linear-gradient-24)"/><polygon points="81.33 81.27 73.64 105.56 79.39 112.86 85.23 107.11 84.54 81.82 81.33 81.27" style="fill:url(#linear-gradient-25)"/><path d="M77.22,6.29H58.45V9.47H54.14v5.3h4.7v4.81H53.4v3.13l25.16,8.71ZM65,13H62.21V10.18H65Zm7.25,5.21H70v3.51H65.46V17.19h3.6V15h3.21Z" style="fill:url(#linear-gradient-26)"/><polygon points="37.29 19.33 33.67 19.33 33.67 24.5 38.84 24.5 38.84 21.16 42.12 21.16 42.12 14.95 38.19 14.95 38.19 12.35 34.82 12.35 34.82 15.72 37.29 15.72 37.29 19.33" style="fill:url(#linear-gradient-27)"/><rect x="28.29" y="29.93" width="5.51" height="5.51" style="fill:url(#linear-gradient-28)"/><rect x="13.48" y="19.58" width="4.54" height="4.54" style="fill:url(#linear-gradient-29)"/><rect x="35.38" y="37.97" width="4.92" height="4.92" style="fill:url(#linear-gradient-30)"/><rect x="7.7" y="7.63" width="4.54" height="4.54" style="fill:url(#linear-gradient-31)"/><rect x="11.43" y="1.78" width="2.91" height="2.91" style="fill:url(#linear-gradient-32)"/><rect x="3" y="4.79" width="2.05" height="2.05" style="fill:url(#linear-gradient-33)"/><polygon points="42.74 8.89 42.74 13 46.84 13 46.84 10.5 52.13 10.5 52.13 4.28 45.91 4.28 45.91 8.89 42.74 8.89" style="fill:url(#linear-gradient-34)"/><polygon points="41.23 4.22 43.11 4.22 43.11 1.14 40.03 1.14 40.03 3.21 37.02 3.21 37.02 7.41 41.23 7.41 41.23 4.22" style="fill:url(#linear-gradient-35)"/><polygon points="23.9 27.19 30.18 27.19 30.18 20.91 25.14 20.91 25.14 18.06 21.02 18.06 21.02 22.19 23.9 22.19 23.9 27.19" style="fill:url(#linear-gradient-36)"/><rect x="45.36" y="16.54" width="6.09" height="6.09" style="fill:url(#linear-gradient-37)"/><rect x="24.74" y="1.82" width="3.06" height="3.06" style="fill:url(#linear-gradient-38)"/><rect x="17.07" y="3.35" width="3.95" height="3.95" style="fill:url(#linear-gradient-39)"/><polygon points="28.84 18.06 32.21 18.06 32.21 13.89 29.93 13.89 29.93 11.44 33.82 11.44 33.82 6.17 28.09 6.17 28.09 10.13 24.74 10.13 24.74 15.03 28.84 15.03 28.84 18.06" style="fill:url(#linear-gradient-40)"/><rect x="15.75" y="10.31" width="5.27" height="5.26" style="fill:url(#linear-gradient-41)"/><rect x="22.16" y="30.7" width="3.1" height="3.1" style="fill:url(#linear-gradient-42)"/><path d="M77.7,32.6,53.4,24.19V26H49.28v4.2h2.61v3.28H45.32v-2.7H41.47V28.24h3.28V24.13H40.63v3.06H36.29v5.17h3.78v3.28h3.41v3.71h2.43V37.08H49v3.08H47.43v4.57H38.88l.1.11v2.84h2.54l4.34,4.87ZM62,30.23H66.1v4.05H62ZM51,40H53.4V36.31h4.89V41.2H54.35v2.16H51Z" style="fill:url(#linear-gradient-43)"/><rect x="54.17" y="2.01" width="3.62" height="3.62" style="fill:url(#linear-gradient-44)"/></svg>