<?xml version="1.0" encoding="utf-8"?>
<!-- Generator: Adobe Illustrator 25.3.1, SVG Export Plug-In . SVG Version: 6.00 Build 0)  -->
<svg version="1.1" id="Layer_1" xmlns="http://www.w3.org/2000/svg" xmlns:xlink="http://www.w3.org/1999/xlink" x="0px" y="0px"
	 viewBox="0 0 300 80" style="enable-background:new 0 0 300 80;" xml:space="preserve">
<style type="text/css">
	.st0{fill:#8B5BA2;}
	.st1{fill:#565656;}
</style>
<path class="st0" d="M163.7,22.8h-10.1c-13,0-23.4,10.5-23.4,23.4v10.1c0,13,10.5,23.4,23.4,23.4h10.1c13,0,23.4-10.5,23.4-23.4
	V46.2C187.2,33.3,176.8,22.8,163.7,22.8z M177.2,56.3c0,7.4-6,13.5-13.5,13.5h-10.1c-7.4,0-13.5-6-13.5-13.5V46.2
	c0-7.4,6-13.5,13.5-13.5h10.1c7.4,0,13.5,6,13.5,13.5V56.3z"/>
<path class="st1" d="M21.7,64.3l-4.8,14.1c-0.3,0.9-1.1,1.4-2,1.4H6.4c-1.5,0-2.5-1.4-2-2.8L30.7,1.9c0.3-0.9,1.1-1.4,2-1.4h14.8
	c0.9,0,1.7,0.6,2,1.4L76.1,77c0.5,1.4-0.5,2.8-2,2.8H66c-0.9,0-1.7-0.6-2-1.4l-4.9-14.1c-0.1-0.3-0.4-0.5-0.7-0.5H22.3
	C22,63.8,21.8,64,21.7,64.3z M39.5,11.8L25.3,53.6c-0.2,0.4,0.2,0.9,0.7,0.9h28.9c0.5,0,0.8-0.5,0.7-0.9L40.9,11.8
	C40.7,11.2,39.8,11.2,39.5,11.8z"/>
<path class="st1" d="M207.8,79.7h-6.7c-1.2,0-2.1-1-2.1-2.1V2.5c0-1.2,1-2.1,2.1-2.1h6.7c1.2,0,2.1,1,2.1,2.1v75.1
	C209.9,78.7,209,79.7,207.8,79.7z"/>
<path class="st1" d="M258.9,31.1c0,0.4,0.5,0.5,0.6,0.2c2.9-5.4,8.5-7.8,17.2-7.8c9.1,0,15.3,2.4,17.9,7.2c1.4,2.5,1.9,5.4,1.9,12.2
	v34.9c0,1.2-1,2.1-2.1,2.1h-6.7c-1.2,0-2.1-1-2.1-2.1V45.3c0-11-1.8-13-11.6-13c-10.6,0-15,4.2-15,14.2v31.1c0,1.2-1,2.1-2.1,2.1
	h-6.7c-1.2,0-2.1-1-2.1-2.1V26.3c0-1.2,1-2.1,2.1-2.1h6.7c1.2,0,2.2,1,2.1,2.2L258.9,31.1z"/>
<path class="st1" d="M113.1,25.7l-12.6,43.9c-0.2,0.7-1.1,0.7-1.3,0L86.1,25.7c-0.3-0.9-1.1-1.5-2-1.5h-7c-1.4,0-2.5,1.4-2,2.7
	l16.1,51.3c0.3,0.9,1.1,1.5,2,1.5h13.5c0.9,0,1.8-0.6,2-1.5l15.7-51.3c0.4-1.4-0.6-2.7-2-2.7h-7.3C114.1,24.2,113.3,24.8,113.1,25.7
	z"/>
<path class="st1" d="M232.5,79.7h-6.7c-1.2,0-2.1-1-2.1-2.1V26.3c0-1.2,1-2.1,2.1-2.1h6.7c1.2,0,2.1,1,2.1,2.1v51.3
	C234.6,78.7,233.6,79.7,232.5,79.7z"/>
<path class="st1" d="M223.6,8.6c0,1.5,1.2,2.7,2.7,2.7h5.5c1.5,0,2.7-1.2,2.7-2.7V3.2c0-1.5-1.2-2.7-2.7-2.7h-5.5
	c-1.5,0-2.7,1.2-2.7,2.7V8.6z"/>
</svg>
