<svg id="Layer_1" data-name="Layer 1" xmlns="http://www.w3.org/2000/svg" viewBox="0 0 300 72.13"><path d="M14.38,1.47c-4.7.7-8,4.11-9.1,9.23A97,97,0,0,0,5,22.27c.1,9.55.13,10,.87,11.84a11.92,11.92,0,0,0,5.56,5.94C15,41.57,20.81,41.21,24,39.28c3-1.77,4.44-4.43,5-8.87l.23-1.93H21.68v1.45c0,2.86-1.42,4.72-3.86,5.14a4.74,4.74,0,0,1-4.12-1.22C12.35,32.43,12,29.93,12,21.24c0-9.48.29-11.25,2.09-13a3.11,3.11,0,0,1,2.8-1c3.15,0,4.76,1.76,4.76,5.14V14h3.69c4.22,0,3.93.29,3.35-3.19a10.39,10.39,0,0,0-3.35-6.75C22.87,1.79,18.65.79,14.38,1.47Z" style="fill:#ef413b"/><path d="M43.35,1.47a11.56,11.56,0,0,0-9.62,9c-.45,1.74-.51,3.54-.41,11.57.09,9.07.16,9.62.86,11.39A11.64,11.64,0,0,0,38.53,39c2.18,1.48,3.73,1.87,7.58,1.84a12.18,12.18,0,0,0,5.21-.74,12.17,12.17,0,0,0,5.82-5.34c1.42-2.86,1.58-4.44,1.45-14.63-.13-11-.29-11.77-3.18-14.95a11.6,11.6,0,0,0-7-3.7A11.8,11.8,0,0,0,43.35,1.47Zm5,6.36c2.76,1.39,3.31,4,3.18,14.7-.13,7.62-.13,7.75-1,9.49-1.06,2.18-2.28,3-4.56,3s-3.61-.74-4.63-2.93l-.87-1.83V21.08c0-9.13,0-9.16.8-10.77a4.79,4.79,0,0,1,4.47-3.05A6.84,6.84,0,0,1,48.37,7.83Z" style="fill:#ef413b"/><path d="M247.54,1.47a11.56,11.56,0,0,0-9.62,9c-.45,1.74-.51,3.54-.41,11.57.09,9.07.16,9.62.86,11.39A11.68,11.68,0,0,0,242.71,39c2.19,1.48,3.73,1.87,7.59,1.84a11.13,11.13,0,0,0,11-6.08c1.42-2.86,1.58-4.44,1.45-14.63-.13-11-.29-11.77-3.18-14.95a11.6,11.6,0,0,0-7.05-3.7A11.75,11.75,0,0,0,247.54,1.47Zm5,6.36c2.77,1.39,3.32,4,3.19,14.7-.13,7.62-.13,7.75-1,9.49-1.06,2.18-2.28,3-4.57,3s-3.6-.74-4.63-2.93l-.86-1.83V21.08c0-9.13,0-9.16.8-10.77A4.79,4.79,0,0,1,250,7.26,6.74,6.74,0,0,1,252.55,7.83Z" style="fill:#ef413b"/><path d="M64.44,21.08v19.3h6.37c6.69,0,8.75-.29,11.35-1.61,2.83-1.45,5-4.54,5.92-8.43.54-2.34.67-14.88.19-17.49C87.15,7,83.83,3.43,78.37,2.27a44.79,44.79,0,0,0-8-.48H64.44ZM78,8.61c2.92,1.48,3.7,4.69,3.44,14.08-.16,6.91-.58,8.71-2.28,10.23a8.69,8.69,0,0,1-6,1.6l-1.45-.09-.1-13.28L71.52,7.9H74A7.67,7.67,0,0,1,78,8.61Z" style="fill:#ef413b"/><path d="M94.35,21.08v19.3h21.54V34.59H101.42l.07-5.57.09-5.53,6-.09,6-.07V17.55H101.42V7.9h14.47V1.79H94.35Z" style="fill:#ef413b"/><path d="M137.76,21.08v19.3h7.07V28.25c0-7.59.13-12,.29-11.8s2.7,5.56,5.6,12L156,40.22l3.76.09,3.73.1V1.79h-7.39L156,14l-.09,12.15L150.46,14,145,1.79h-7.23Z" style="fill:#ef413b"/><path d="M177.34,3c-3.82,14.4-9.71,36.33-9.84,36.78s0,.62,3.51.62,3.73,0,3.89-.74c.09-.39.38-1.74.67-3s.65-2.8.81-3.47L176.7,32h4.63c3,0,4.69.12,4.82.35s.61,2,1.13,4.08l.87,3.77,3.69.09,3.7.1-3.95-14.89c-2.19-8.2-4.5-16.88-5.15-19.33l-1.19-4.4h-7.59Zm5.85,15.85c.84,3.64,1.52,6.79,1.52,7s-.9.42-3.41.42c-3.09,0-3.38-.07-3.22-.58.07-.29.84-3.54,1.67-7.24A43.64,43.64,0,0,1,181.49,12C181.62,12.14,182.39,15.2,183.19,18.83Z" style="fill:#ef413b"/><path d="M193.71,4.84V7.9H203V40.38h7.4V7.9h9V1.79H193.71Z" style="fill:#ef413b"/><path d="M224.26,21.08v19.3h7.07V1.79h-7.07Z" style="fill:#ef413b"/><path d="M268.63,21.08v19.3h7.08V28.32c0-6.63.09-12.06.25-12.06s2.64,5.4,5.6,12l5.37,12,3.7.09,3.73.1V1.79H287l-.06,12.12L286.8,26l-5.43-12.12L275.9,1.79h-7.27Z" style="fill:#ef413b"/><path d="M32.29,61.76v9.16h2.57V52.6H32.29Z" style="fill:#626466"/><path d="M148.69,54v1.45h2.9V52.6h-2.9Z" style="fill:#626466"/><path d="M209.79,61.76v9.16h7.71V68.35h-4.82V52.6h-2.89Z" style="fill:#626466"/><path d="M244.84,61.76v9.16H246c.77,0,1.13-.16,1.13-.48,0-.61.45-.61,1,0s2.09.64,3.06.29,1.41-1.9,1.61-4.82c.25-3.35-.23-7-1-7.85a3,3,0,0,0-3.38-.55l-1,.49V52.6h-2.57Zm4.69-2c.52.38.61.93.71,3.79.13,4-.19,5.08-1.51,5.08a1.17,1.17,0,0,1-1.13-.51,33.14,33.14,0,0,1-.19-4.31c0-3.31.06-3.86.58-4.15C248.73,59.25,248.79,59.28,249.53,59.8Z" style="fill:#626466"/><path d="M134.86,55.65c0,1.54-.06,1.77-.64,1.77s-.64.22-.64,1,.13,1,.64,1,.64.22.64,4.21c0,5.63.49,6.62,3.48,7.2,1,.2,1,.2,1-.87a1.52,1.52,0,0,0-1-1.6l-1-.55V59.35h1c.87,0,1-.1,1-1s-.1-1-1-1-1,0-1-1.77V53.88h-2.58Z" style="fill:#626466"/><path d="M11,58.16,5.28,61.44v2.92l5.62,3.28c3.09,1.8,5.7,3.28,5.79,3.28a5.2,5.2,0,0,0,.1-2l-.1-2-3.5-2-3.51-2,1-.58c.54-.32,2.15-1.22,3.6-2l2.6-1.44v-2a17.83,17.83,0,0,0-.06-2C16.72,54.85,14.12,56.33,11,58.16Z" style="fill:#626466"/><path d="M283.42,56.84v2L287,60.92l3.57,2-1.57.87-3.7,2.09L283.1,67.1V69a5,5,0,0,0,.2,1.93c.12,0,2.79-1.44,5.94-3.24L295,64.43v-2.8l-5.66-3.38c-3.09-1.86-5.69-3.4-5.79-3.4A8.48,8.48,0,0,0,283.42,56.84Z" style="fill:#626466"/><path d="M48.78,57.71c-.86.54-1.06.58-1.06.19s-.35-.48-1.12-.48H45.47v13.5H48V65.46c0-5.12,0-5.47.65-5.79a1.5,1.5,0,0,1,2.05.84,46.2,46.2,0,0,1,.2,5.46v5h2.25V65c0-5.69,0-6-.71-6.76A2.73,2.73,0,0,0,48.78,57.71Z" style="fill:#626466"/><path d="M67.66,57.32a3.58,3.58,0,0,0-1,.68c-.51.45-.58.42-.58,0s-.29-.55-1.29-.55H63.48v13.5h2.57V65.65c0-5.11,0-5.31.71-5.79.9-.64,1.06-.64,1.67,0,.42.42.52,1.42.52,5.79v5.27h2.57V65.3c0-6.34-.23-7.24-2-7.85C68.43,57.06,68.37,57.06,67.66,57.32Z" style="fill:#626466"/><path d="M84.22,57.32A3.91,3.91,0,0,0,81.81,60a28.56,28.56,0,0,0,0,8.46c.48,1.7,1.64,2.5,3.6,2.5s2.67-.35,3.34-1.64.94-5,.61-7.81c-.29-2.7-1.25-4-3.21-4.18A6.27,6.27,0,0,0,84.22,57.32Zm2.22,2.74c.38.54.51,1.54.51,4,0,3.63-.29,4.56-1.38,4.56-1.32,0-1.51-.54-1.51-4.53,0-3,.09-3.89.51-4.28C85.25,59.15,85.86,59.22,86.44,60.06Z" style="fill:#626466"/><path d="M118.92,57.45a3.9,3.9,0,0,0-2.55,2.61c-.22.86-.19.9,1.07.9,1,0,1.35-.13,1.51-.62.45-1.47,2.28-1.15,2.6.45.36,2,.16,2.22-1.86,2.42a4.49,4.49,0,0,0-2.48.77,4.81,4.81,0,0,0-.16,6.2,3.43,3.43,0,0,0,3.92.23c.65-.45.71-.45.71,0s.32.51,1.13.51h1.12V65.17c0-5.28-.06-5.79-.64-6.56a5.43,5.43,0,0,0-3.22-1.48C120,57.13,119.46,57.29,118.92,57.45Zm2.76,8.46c0,2.44-1.32,3.7-2.6,2.41a2.05,2.05,0,0,1,1.51-3.51C121.62,64.81,121.68,64.88,121.68,65.91Z" style="fill:#626466"/><path d="M163.8,57.51c-1.83.65-2.34,2-2.37,6,0,4.21.22,5.49,1.31,6.59a2.81,2.81,0,0,0,2.48.83c3.25,0,4.05-1.38,4.05-6.94,0-3.89-.45-5.6-1.57-6.21A5.5,5.5,0,0,0,163.8,57.51Zm2.38,2.32c1,1,1.1,7.3.16,8.39a1.54,1.54,0,0,1-1.12.45c-1.16,0-1.48-1.25-1.35-5.08.1-2.86.19-3.41.71-3.79C165.38,59.22,165.57,59.22,166.18,59.83Z" style="fill:#626466"/><path d="M183.42,57.32a3.58,3.58,0,0,0-1,.68c-.51.45-.58.42-.58,0s-.29-.55-1.12-.55h-1.13v13.5h2.25V66a50,50,0,0,1,.19-5.46,1.52,1.52,0,0,1,2.06-.84c.61.32.65.67.65,5.79v5.46h2.57V65c0-5.73,0-6-.71-6.76A3.44,3.44,0,0,0,183.42,57.32Z" style="fill:#626466"/><path d="M229.11,57.51a4.12,4.12,0,0,0-2.44,2.71c-.19.67-.1.74,1.09.74,1,0,1.32-.13,1.48-.62a1.33,1.33,0,0,1,.77-.83c1.35-.42,2.13.64,1.9,2.6-.1.87-.22.94-1.7,1.1-2.93.32-3.7,1.15-3.7,4,0,2.32,1.06,3.73,2.86,3.73a3.79,3.79,0,0,0,1.9-.51c.64-.45.7-.45.7,0s.33.51,1.29.51h1.29V65.78c0-5.6-.29-7-1.67-7.81A4.35,4.35,0,0,0,229.11,57.51ZM232,66.26c0,1.35-.77,2.73-1.54,2.73S229,68,229,67c0-1.48.61-2.16,1.93-2.16C232,64.81,232,64.85,232,66.26Z" style="fill:#626466"/><path d="M264.87,57.45a3.88,3.88,0,0,0-2.67,3.63c0,1.84.71,2.71,3.09,3.77,2.06.93,2.73,1.83,2.25,3s-2.57,1-2.93-.16c-.16-.48-.48-.64-1.32-.64s-1.09.09-1.09.83a3.24,3.24,0,0,0,1.09,1.93,2.85,2.85,0,0,0,2.58,1.09c2,0,3.18-.67,3.86-2,1.22-2.54.51-4.15-2.54-5.66-2-1-2.26-1.23-2.35-2.16s0-1.12.77-1.45.93-.32,1.61.49c1,1.15,2.7,1.25,2.7.09a3.4,3.4,0,0,0-2.51-2.76,8,8,0,0,0-1.35-.29C266,57.13,265.45,57.29,264.87,57.45Z" style="fill:#626466"/><path d="M99.94,64.07l1.68,6.69,1.35.1c1.28.1,1.31.06,1.64-1.13.61-2.18,2.92-11.83,2.92-12.09s-.61-.22-1.35-.16l-1.38.1L104,61.82c-.45,2.32-.9,4.31-1,4.44s-.45-1.16-.74-2.8-.71-3.66-.87-4.53L101,57.42H98.27Z" style="fill:#626466"/><path d="M149,64.33v6.59h2.58V57.74H149Z" style="fill:#626466"/></svg>