<?xml version="1.0" encoding="utf-8"?>
<!-- Generator: Adobe Illustrator 25.3.1, SVG Export Plug-In . SVG Version: 6.00 Build 0)  -->
<svg version="1.1" id="Layer_1" xmlns="http://www.w3.org/2000/svg" xmlns:xlink="http://www.w3.org/1999/xlink" x="0px" y="0px"
	 viewBox="0 0 300 80" style="enable-background:new 0 0 300 80;" xml:space="preserve">
<style type="text/css">
	.st0{fill:#8B5BA2;}
	.st1{fill:#FFFFFF;}
	.st2{fill-rule:evenodd;clip-rule:evenodd;fill:#B87333;}
	.st3{fill-rule:evenodd;clip-rule:evenodd;fill:#5D2D24;}
	.st4{fill:#5D2D24;}
	.st5{fill:#B87333;}
</style>
<g id="Layer_2_1_">
	<g id="_Layer_">
		<path class="st2" d="M21.2,27.3c4.6,0.7,7.8,5,7,9.7c-0.2,1.4-0.8,2.8-1.7,4l0.7,3.8l-3.1-1.8c-4,2.4-9.2,1.1-11.6-3
			s-1.1-9.2,3-11.6c1.7-1,3.6-1.4,5.5-1.1H21.2z"/>
		<path class="st2" d="M47.3,32.4c-2.9,0.4-4.9,3.2-4.5,6.1c0,0,0,0,0,0.1c0.1,0.9,0.5,1.8,1.1,2.5l-0.4,2.4l1.9-1.1
			c1.1,0.6,2.3,0.9,3.5,0.7c2.9-0.3,5-3,4.7-5.9c-0.3-2.9-3-5-5.9-4.7C47.6,32.4,47.4,32.4,47.3,32.4L47.3,32.4z"/>
		<path class="st2" d="M31.2,27.2c-1.1,2.7,0.3,5.8,3.1,6.9c0,0,0,0,0,0c0.9,0.3,1.8,0.4,2.7,0.3l1.8,1.5v-2.2
			c2.6-1.4,3.5-4.7,2.1-7.3s-4.7-3.5-7.3-2.1C32.5,25.1,31.7,26.1,31.2,27.2L31.2,27.2z"/>
		<path class="st2" d="M11.5,55c2.7,1.2,5.8,0,7-2.6c0,0,0,0,0,0c0.4-0.8,0.5-1.8,0.4-2.7l1.7-1.7l-2.3-0.1
			c-1.3-2.6-4.5-3.7-7.1-2.4c-2.6,1.3-3.7,4.5-2.4,7.1C9.4,53.6,10.4,54.4,11.5,55z"/>
		<path class="st2" d="M64,35.9c-3.8-1-7.7,1.3-8.7,5.1c0,0,0,0.1,0,0.1c-0.3,1.2-0.3,2.5,0,3.7l-1.8,2.7l2.9-0.4
			c2.3,3.2,6.8,3.9,10,1.5c3.2-2.3,3.9-6.8,1.5-10C67,37.2,65.5,36.3,64,35.9L64,35.9z"/>
		<path class="st2" d="M49,16.1c-3.9,0.6-6.6,4.3-6,8.2c0.2,1.2,0.7,2.4,1.4,3.3l-0.6,3.2l2.6-1.5c3.4,2,7.8,1,9.9-2.4
			c2-3.4,1-7.8-2.4-9.9C52.3,16.2,50.6,15.8,49,16.1L49,16.1z"/>
		<path class="st2" d="M22.1,13.3c-2.5,3.1-2,7.6,1.1,10.1c0,0,0,0,0,0c1,0.8,2.1,1.3,3.4,1.5l1.7,2.8l0.9-2.9
			c3.9-0.8,6.4-4.6,5.6-8.5c-0.8-3.9-4.6-6.4-8.5-5.6C24.7,11.1,23.2,12,22.1,13.3L22.1,13.3z"/>
		<path class="st2" d="M0,37.4c0.2,2.5,2.4,4.3,4.9,4c0.8-0.1,1.5-0.3,2.1-0.8l2,0.5l-0.8-1.7c0.6-0.9,0.9-1.9,0.8-2.9
			c-0.1-2.5-2.2-4.4-4.7-4.2C1.8,32.5-0.1,34.6,0,37C0,37.1,0,37.3,0,37.4z"/>
		<path class="st2" d="M12.6,23.2c0.1,1.5,1.4,2.6,2.9,2.5c0,0,0,0,0,0c0.5,0,0.9-0.2,1.3-0.5l1.2,0.3l-0.5-1
			c0.3-0.5,0.5-1.2,0.5-1.8c-0.2-1.5-1.5-2.6-3-2.4C13.6,20.4,12.5,21.7,12.6,23.2C12.6,23.2,12.6,23.2,12.6,23.2z"/>
		<path class="st2" d="M62,31c-0.1,1.5-1.5,2.6-3,2.4c-0.5,0-0.9-0.2-1.3-0.5l-1.2,0.3l0.5-1c-0.4-0.5-0.5-1.1-0.5-1.8
			c0.2-1.5,1.6-2.5,3.1-2.3C61.1,28.4,62.1,29.6,62,31z"/>
		<path class="st2" d="M41.1,17.4c0.7,1.3,0.2,3-1.1,3.7c-0.4,0.2-0.9,0.3-1.3,0.3l-0.8,0.9l-0.1-1.1c-0.6-0.2-1.1-0.7-1.4-1.2
			c-0.7-1.3-0.3-3,1-3.7c1.3-0.7,3-0.3,3.7,1C41.1,17.3,41.1,17.4,41.1,17.4z"/>
		<path class="st3" d="M41.5,69.4c0,0,0.2-3.3,0.5-9.8c0-2.7,4.3-8,8.7-14.4c-5.3,3-10,6.8-14,11.3c-3.2-4.8-7.4-8.1-14.5-12
			c5.2,5,10,10.8,11.7,17.8c0.5,2.4,0.1,5-1.2,7.1H41.5z"/>
		<path class="st4" d="M106.5,50.9c-0.5,1.8-1.2,3.5-1.9,5.2c-2.1,0.5-4.2,0.8-6.3,0.8c-8.3,0-12.5-5.5-12.5-11.6
			c0-7,5.4-11.9,13.1-11.9c2.2,0.1,4.4,0.3,6.5,0.8c0.1,1.5,0.4,3.6,0.7,5.4l-1.1,0.2c-0.7-2.3-1.5-3.7-3.3-4.5
			c-1.1-0.5-2.4-0.7-3.6-0.7c-5.7,0-8.7,4.2-8.7,9.9c0,6.7,3.5,11,9.1,11c3.5,0,5.3-1.6,7-5.1L106.5,50.9z"/>
		<path class="st4" d="M119.8,33.5c6.1,0,11.2,4.9,11.2,11c0,0.1,0,0.2,0,0.4c0,7.4-5.1,12.1-11.4,12.1c-6.2,0.1-11.4-4.8-11.5-11
			c0-0.2,0-0.4,0-0.5c-0.2-6.4,4.8-11.7,11.1-11.9C119.5,33.5,119.6,33.5,119.8,33.5z M119.1,34.7c-3.9,0-7.4,3.2-7.4,9.7
			s3.5,11.2,8.4,11.2c4.2,0,7.3-3.1,7.3-9.8C127.5,38.6,123.7,34.7,119.1,34.7z"/>
		<path class="st4" d="M141.6,33.9c2.1-0.1,4.1,0.4,5.9,1.5c1.5,1.2,2.4,3,2.3,4.9c0,5-4.3,7.1-7.7,7.1c-0.3,0-0.6,0-0.9-0.1
			l-2.4-0.6v5.4c0,2.9,0.2,3,3.4,3.3v1h-9.5v-1c3-0.3,3.1-0.5,3.1-3.4V38.3c0-3.1-0.4-3.2-3.1-3.4v-1L141.6,33.9z M138.8,45.5
			c0.8,0.3,1.7,0.5,2.5,0.5c2.3,0,5.2-1.2,5.2-5.5c0.2-2.7-1.8-5.1-4.5-5.3c-0.3,0-0.6,0-0.9,0c-0.7-0.1-1.4,0.1-1.9,0.4
			c-0.3,0.2-0.4,0.7-0.4,1.5V45.5z"/>
		<path class="st4" d="M159.8,33.9c2.1-0.1,4.1,0.4,5.8,1.5c1.5,1.2,2.4,3,2.3,4.9c0,5-4.3,7.1-7.7,7.1c-0.3,0-0.6-0.1-0.9-0.1
			l-2.4-0.6v5.4c0,2.9,0.2,3,3.4,3.3v1h-9.6v-1c3-0.3,3.1-0.5,3.1-3.4V38.3c0-3.1-0.4-3.2-3.1-3.4v-1L159.8,33.9z M157,45.5
			c0.8,0.3,1.7,0.5,2.5,0.5c2.3,0,5.2-1.2,5.2-5.5c0.2-2.7-1.7-5.1-4.4-5.3c-0.3,0-0.6,0-1,0c-0.7-0.1-1.4,0.1-1.9,0.4
			c-0.3,0.2-0.4,0.7-0.4,1.5V45.5z"/>
		<path class="st4" d="M187,50.9c-0.2,0.9-1.1,4.5-1.5,5.5h-16.9v-1c3.2-0.2,3.5-0.6,3.5-3.4V38.4c0-3.1-0.4-3.2-3-3.5v-1h10.6
			c3.2,0,4.6,0,5-0.1c0,0.9,0.2,3.5,0.3,5.3l-1,0.2c-0.2-0.9-0.6-1.8-1-2.6c-0.6-1.1-1.3-1.4-3.4-1.4h-3.3c-1.1,0-1.1,0.1-1.1,1.1
			v7.7h3.8c2.6,0,2.8-0.5,3.2-2.9h1.1v7.1h-1.1c-0.4-2.5-0.7-2.8-3.2-2.8h-3.8v6.9c0,2.4,0.8,2.6,2.5,2.7h3.3c2.1,0,2.5-0.3,3.2-1.2
			c0.8-1,1.4-2,1.9-3.2L187,50.9z"/>
		<path class="st4" d="M208.2,56.7c-0.4,0-0.8,0-1.3-0.1c-2.2,0.1-4.3-1.1-5.4-3c-1.3-1.8-2.5-3.9-3.6-5.7c-0.7-1.1-1.1-1.3-2.9-1.3
			h-1.2v5.4c0,2.9,0.4,3.1,3.2,3.4v1h-9.2v-1c2.9-0.3,3.1-0.4,3.1-3.4V38.3c0-2.9-0.4-3.1-3.1-3.4v-1h8.8c1.9-0.2,3.8,0.2,5.5,1.2
			c1.6,1,2.5,2.8,2.4,4.6c-0.1,2.7-1.9,5.1-4.5,5.9c0.6,1.1,2.1,3.4,3.2,4.9c0.8,1.3,1.7,2.4,2.7,3.6c0.7,0.7,1.6,1.3,2.5,1.5
			L208.2,56.7z M195.5,45.5c1.3,0.1,2.7-0.2,3.8-1c1.3-1,2-2.6,1.9-4.3c0.3-2.5-1.5-4.8-4.1-5.1c-0.4,0-0.7,0-1.1,0
			c-0.6-0.1-1.3,0-1.8,0.3c-0.3,0.2-0.4,0.6-0.4,1.5v8.5L195.5,45.5z"/>
		<path class="st5" d="M227.6,39.5c-0.3-1-0.7-2-1.2-3c-0.6-0.9-0.9-1.1-2.8-1.1h-3.2v16.7c0,2.7,0.3,3.1,3.5,3.3v1h-10.3v-1
			c3.2-0.2,3.4-0.5,3.4-3.3V35.4h-3c-1.9,0-2.5,0.2-3.1,1.2c-0.5,0.9-0.9,1.9-1.2,2.9h-1.1c0.2-2.2,0.4-4.5,0.5-6.3h0.8
			c0.5,0.8,0.9,0.8,1.9,0.8h13.8c0.7,0.1,1.4-0.2,1.8-0.8h0.8c0,1.5,0.1,4.2,0.3,6.2L227.6,39.5z"/>
		<path class="st5" d="M254.8,56.7c-0.4,0-0.8,0-1.2,0c-2.3,0.1-4.4-1-5.6-2.9c-1.3-1.8-2.5-4-3.6-5.8c-0.7-1.1-1.1-1.3-2.8-1.3
			h-1.1V52c0,2.9,0.4,3.1,3.1,3.4v1H234v-1c2.8-0.3,3.1-0.5,3.1-3.4V38.2c0-2.9-0.4-3.1-3.1-3.3v-1h9c2-0.2,3.9,0.2,5.7,1.2
			c1.5,1,2.4,2.8,2.3,4.6c-0.1,2.7-1.9,5.1-4.4,5.9c0.6,1.1,2.1,3.4,3.1,4.9c0.8,1.3,1.7,2.4,2.7,3.6c0.7,0.7,1.5,1.3,2.5,1.5
			L254.8,56.7z M242,45.4c1.3,0.1,2.6-0.2,3.7-1c1.3-1,2-2.6,1.9-4.2c0.3-2.5-1.6-4.8-4.1-5c-0.3,0-0.5,0-0.8,0
			c-0.6-0.1-1.2,0-1.8,0.3c-0.3,0.2-0.4,0.6-0.4,1.5v8.4H242z"/>
		<path class="st5" d="M276.9,50.9c-0.2,0.9-1.1,4.6-1.5,5.6h-17v-1c3.2-0.2,3.4-0.5,3.4-3.4V38.4c0-3.1-0.4-3.2-2.9-3.5v-1h10.7
			c3.3,0,4.6,0,5.1-0.1c0,0.8,0.2,3.5,0.3,5.3l-1.1,0.2c-0.2-1-0.6-1.9-1.1-2.7c-0.6-1.1-1.3-1.3-3.3-1.3h-3.1
			c-1.1,0-1.2,0.1-1.2,1.1v7.6h3.8c2.5,0,2.7-0.5,3.1-2.9h1.1v7.2H272c-0.5-2.5-0.7-2.9-3.1-2.9h-3.8v6.7c0,2.4,0.6,2.7,2.4,2.7h3.1
			c2.1,0,2.5-0.3,3.2-1.2c0.8-1,1.5-2.1,2-3.2L276.9,50.9z"/>
		<path class="st5" d="M300,50.9c-0.2,0.9-1.1,4.6-1.5,5.6h-17v-1c3.2-0.2,3.4-0.5,3.4-3.4V38.4c0-3.1-0.4-3.2-2.9-3.5v-1h10.7
			c3.3,0,4.6,0,5.1-0.1c0,0.8,0.2,3.5,0.3,5.3l-1.1,0.2c-0.2-1-0.6-1.9-1.1-2.7c-0.6-1.1-1.3-1.3-3.3-1.3h-3.1
			c-1.1,0-1.2,0.1-1.2,1.1v7.6h3.8c2.5,0,2.7-0.5,3.1-2.9h1.1v7.2h-1.1c-0.5-2.5-0.8-2.9-3.2-2.9h-3.7v6.7c0,2.4,0.6,2.7,2.4,2.7
			h3.1c2.1,0,2.5-0.3,3.2-1.2c0.8-1,1.4-2.1,1.9-3.2L300,50.9z"/>
	</g>
</g>
</svg>
