<svg id="Layer_1" data-name="Layer 1" xmlns="http://www.w3.org/2000/svg" viewBox="0 0 204.18 80"><path d="M6.44,6.46C5.3,10.19,5.1,11.87,5.1,16.63v5.76H8.83c6.64,0,10.91,1.39,14.73,4.86a16.9,16.9,0,0,1,0,25.5c-3.82,3.47-8.09,4.86-14.73,4.86H5.1v5.76c0,4.76.2,6.44,1.34,10.17L7.78,78,12,77.85l4.17-.15,1.29-4.16,1.29-4.17,2.48-.85a37.06,37.06,0,0,0,4.61-1.93l2.08-1.09,4,2.13,3.92,2.14,3-2.93,3-3-2.14-4-2.18-4,.94-1.48a33.53,33.53,0,0,0,2-4.57l1-3.07,4.21-1.29,4.17-1.29V35.83l-4.17-1.29-4.21-1.29-1-3.07a30.94,30.94,0,0,0-2-4.57l-.94-1.48,2.18-4,2.14-4-3-3-3-2.93-3.92,2.14-4,2.13-2.08-1.09a37.06,37.06,0,0,0-4.61-1.93l-2.48-.85L17.46,6.46,16.17,2.3,12,2.15,7.78,2Z" style="fill:#585a5c"/><path d="M58.68,26.11v9.67h3.87c4.71,0,8.09-1.44,10-4.26,1.59-2.38,2-7.25.75-9.68-2.09-4.11-4.57-5.4-10.42-5.4H58.68Zm8.93-4.81A8.17,8.17,0,0,1,69.74,24,3.69,3.69,0,0,1,70,27.65a6.32,6.32,0,0,1-5.9,4.16H62.15v-5.6c0-3.13.15-5.81.4-6C63.1,19.61,66.22,20.31,67.61,21.3Z" style="fill:#585a5c"/><path d="M77.53,26.11v9.67H92.91v-4H81.5v-4h9.92v-4h-10L81.6,22l.15-1.83L87.36,20l5.55-.15V16.44H77.53Z" style="fill:#585a5c"/><path d="M96,17c.15.35,1.88,4.71,3.87,9.67l3.62,9.08h4l3.17-8.08c1.79-4.42,3.52-8.78,3.87-9.68l.65-1.58h-4.72l-2.33,6.1c-1.24,3.32-2.48,5.95-2.73,5.85a43.14,43.14,0,0,1-2.63-6.05l-2.23-5.9H98.17C96.48,16.44,95.84,16.63,96,17Z" style="fill:#585a5c"/><path d="M5.1,40V52.15H9c9.48,0,14.69-4.31,14.69-12.15S18.45,27.85,9,27.85H5.1ZM15,33.9c5.25,2.73,5.25,9.47,0,12.15a9.63,9.63,0,0,1-3.58,1.14H10.07V32.81h1.38A10.41,10.41,0,0,1,15,33.9Z" style="fill:#d1202e"/><path d="M103.58,44.32a10,10,0,0,0-6.7,9.87A9.91,9.91,0,0,0,101,62.27c1.78,1.44,2.18,1.54,6,1.54,3.47,0,4.32-.15,5.71-1.19l1.63-1.14L113,60.09l-1.34-1.39-1.93,1c-4.27,2.19-8.88-.94-8.88-6a4.68,4.68,0,0,1,1.64-3.77A6.13,6.13,0,0,1,110,48.43l1.88.9L113.15,48l1.34-1.34-1.19-.9A11.34,11.34,0,0,0,103.58,44.32Z" style="fill:#585a5c"/><path d="M142.27,44.66a10.42,10.42,0,0,0-6,10.62c.89,5.65,4.56,8.78,10.22,8.78s9.28-3.13,10.22-8.78c.89-5.8-4.12-11.56-10.22-11.56A12.29,12.29,0,0,0,142.27,44.66Zm7.59,4a6.6,6.6,0,0,1,2.88,6.4,7.2,7.2,0,0,1-4.81,5.11,4,4,0,0,1-3.72-.4c-2.19-1-4.17-3.72-4.17-5.5a6.73,6.73,0,0,1,6.45-6.6A7.82,7.82,0,0,1,149.86,48.68Z" style="fill:#585a5c"/><path d="M58.19,53.89v9.67h4V56.12h9.93v-4H62.15v-4H73.56v-4H58.19Z" style="fill:#585a5c"/><path d="M82.05,45.31c-.25.64-2,4.81-4,9.32S74.56,63,74.56,63.17s.89.39,2,.39c1.79,0,2-.14,2.73-1.73L80,60.09h8.93l.7,1.74c.69,1.63.89,1.73,3,1.73h2.24l-1.74-4.11c-1-2.24-2.83-6.6-4.07-9.63l-2.33-5.6H84.58C82.84,44.22,82.39,44.42,82.05,45.31Zm3.82,7.24A30.12,30.12,0,0,1,87,55.78c0,.19-1.09.34-2.48.34S82,56,82,55.78a30.43,30.43,0,0,1,2.48-6.11A12.1,12.1,0,0,1,85.87,52.55Z" style="fill:#585a5c"/><path d="M117.22,46.2v1.94l3.12.14,3.08.15.15,7.54.15,7.59h3.92V48.19h6v-4H117.22Z" style="fill:#585a5c"/><path d="M161.37,53.89v9.67h3.92l.15-2.87.15-2.83,1.73-.15c1.64-.1,1.84,0,3.67,2.88s1.89,3,4.32,3c1.34,0,2.43-.14,2.43-.39a18.62,18.62,0,0,0-2-3l-1.94-2.68,1.24-.94c4-3.13,3.38-9.77-1-11.61-1.14-.45-3.52-.69-7.19-.69h-5.46ZM172.88,49a2.88,2.88,0,0,1,.4,3.67c-.45.79-1.09.94-4.22.94h-3.72V51.26a6.59,6.59,0,0,1,.35-2.73C166.38,47.79,171.94,48.19,172.88,49Z" style="fill:#585a5c"/><path d="M183.2,50.42l4,6.2v6.94h4V56.47l4-6.15,4-6.15-2.58.15-2.58.14-2.33,3.92-2.33,3.87L188,50.37c-.64-1.09-1.74-2.88-2.38-4-1.14-2.08-1.24-2.13-3.77-2.13h-2.63Z" style="fill:#585a5c"/></svg>