<svg id="Layer_1" data-name="Layer 1" xmlns="http://www.w3.org/2000/svg" xmlns:xlink="http://www.w3.org/1999/xlink" viewBox="0 0 170 57.26"><defs><linearGradient id="linear-gradient" x1="-17.64" y1="-983.99" x2="15.86" y2="-945.42" gradientTransform="translate(26.64 994.98)" gradientUnits="userSpaceOnUse"><stop offset="0.2" stop-color="#2f1391"/><stop offset="0.71" stop-color="#0562e9"/><stop offset="1" stop-color="#00a4ef"/></linearGradient></defs><path d="M32,4.35c-11.17.26-19.8.53-24.74.53A2.37,2.37,0,0,0,5,7.3V50.5a2.36,2.36,0,0,0,2.29,2.44H32.52a21.46,21.46,0,0,0,11.84-3.59,18.18,18.18,0,0,1-11.77-6.15A24,24,0,0,1,28,35.8a.53.53,0,0,1,.3-.69h.05a.55.55,0,0,1,.69.31v0h0a23.34,23.34,0,0,0,4.35,7.05,16.66,16.66,0,0,0,12.31,5.85,23.84,23.84,0,0,0,9.13-18.89v-1.6h0C54.86,14.64,44.55,4.06,32,4.35Zm-5.1,28.19L17.82,42l.35-26.68L41,30.38Z" style="fill:url(#linear-gradient)"/><polygon points="18.17 15.32 26.94 32.57 17.8 42.02 18.17 15.32" style="fill:#4ff0f1"/><path d="M64.55,27.11a.67.67,0,0,1-.22-.53V7.27a.77.77,0,0,1,.21-.53.75.75,0,0,1,.53-.22H72.9a10.08,10.08,0,0,1,6.84,2.13,7.83,7.83,0,0,1,2.56,6c0,.58,0,1.34,0,2.29s0,1.71,0,2.27q-.3,8.15-9.25,8.15h-8A.73.73,0,0,1,64.55,27.11Zm8.35-4.22a3.73,3.73,0,0,0,2.76-.9,4,4,0,0,0,1-2.85c0-.58.06-1.32.06-2.24s0-1.64-.06-2.2a3.92,3.92,0,0,0-1-2.81A4,4,0,0,0,72.75,11H70V22.87Z" style="fill:#2f1391"/><path d="M86,27.11a.72.72,0,0,1-.23-.53V7.27a.82.82,0,0,1,.21-.53.75.75,0,0,1,.53-.22h14.05a.76.76,0,0,1,.77.75h0v3a.7.7,0,0,1-.22.54.73.73,0,0,1-.53.2H91.11v3.79h8.76a.75.75,0,0,1,.77.74h0v2.73a.76.76,0,0,1-.73.78H91.1v3.86h9.64a.76.76,0,0,1,.77.73h0v3a.66.66,0,0,1-.22.53.74.74,0,0,1-.53.21H86.44A.7.7,0,0,1,86,27.11Z" style="fill:#2f1391"/><path d="M109.87,27.08a1.4,1.4,0,0,1-.43-.64l-6-19-.06-.26a.55.55,0,0,1,.2-.43.6.6,0,0,1,.46-.2h3.89a1.06,1.06,0,0,1,.73.25,1.27,1.27,0,0,1,.4.57l4,13.45,4-13.45a1.14,1.14,0,0,1,.37-.57,1.12,1.12,0,0,1,.73-.23h3.9a.63.63,0,0,1,.62.62.83.83,0,0,1,0,.27l-6,19a1.17,1.17,0,0,1-1.23.89h-4.79A1.23,1.23,0,0,1,109.87,27.08Z" style="fill:#2f1391"/><path d="M64.91,49.38a7.94,7.94,0,0,1-2.59-6c0-.53,0-1.46,0-2.71s0-2.16,0-2.74a7.5,7.5,0,0,1,2.6-5.82,10.06,10.06,0,0,1,6.74-2.06,12.36,12.36,0,0,1,5,.93,8,8,0,0,1,3.24,2.36,5.12,5.12,0,0,1,1.18,3,.67.67,0,0,1-.66.67H75.8a.83.83,0,0,1-.46-.11,1.57,1.57,0,0,1-.32-.31,3.4,3.4,0,0,0-1.14-1.43,3.71,3.71,0,0,0-2.22-.6q-3.45,0-3.57,3.57v5.15c.08,2.52,1.29,3.79,3.63,3.79a4.11,4.11,0,0,0,2.74-.87,3.24,3.24,0,0,0,1-2.62V43H72.81a.77.77,0,0,1-.73-.78h0V39.92a.76.76,0,0,1,.76-.77h7.57a.76.76,0,0,1,.77.75h0v3.47A7.89,7.89,0,0,1,80,47.73a7.38,7.38,0,0,1-3.31,2.79,11.93,11.93,0,0,1-5,1A10,10,0,0,1,64.91,49.38Z" style="fill:#2f1391"/><path d="M84.68,51a.67.67,0,0,1-.22-.53V31.13a.81.81,0,0,1,.2-.53.73.73,0,0,1,.54-.22h8.18a9.51,9.51,0,0,1,6.14,1.78,6.09,6.09,0,0,1,2.22,5,6.16,6.16,0,0,1-.94,3.52A6.41,6.41,0,0,1,98.14,43l4,7.27a.66.66,0,0,1,.09.33.58.58,0,0,1-.18.43.59.59,0,0,1-.45.2H97.4a1.24,1.24,0,0,1-1.22-.81L92.91,43.9H90v6.53a.67.67,0,0,1-.22.53.78.78,0,0,1-.53.21H85.22A.7.7,0,0,1,84.68,51Zm8.68-11.41a2.7,2.7,0,0,0,1.94-.64A2.31,2.31,0,0,0,96,37.14a2.48,2.48,0,0,0-.67-1.81,2.58,2.58,0,0,0-1.94-.69H90v4.93Z" style="fill:#2f1391"/><path d="M103.55,51a.64.64,0,0,1-.2-.43,1.24,1.24,0,0,1,0-.27l6.92-19.08a1.17,1.17,0,0,1,1.19-.86h4.65a1.15,1.15,0,0,1,1.18.86l6.92,19.08a1.24,1.24,0,0,1,0,.27.66.66,0,0,1-.59.62h-3.87a1,1,0,0,1-1-.65l-1.07-2.89h-7.8l-1.07,2.89a1,1,0,0,1-1,.65H104A.55.55,0,0,1,103.55,51Zm7.63-7.81h5.32l-2.66-7.59Z" style="fill:#2f1391"/><path d="M126.79,51a.72.72,0,0,1-.23-.53V31.13a.79.79,0,0,1,.22-.53.69.69,0,0,1,.53-.22h8.42a9.49,9.49,0,0,1,6.07,1.76,6.21,6.21,0,0,1,2.2,5.14,6,6,0,0,1-2.2,5.08A9.79,9.79,0,0,1,135.73,44h-3.39v6.41a.82.82,0,0,1-.21.53.72.72,0,0,1-.53.23h-4.26A.74.74,0,0,1,126.79,51Zm8.8-11.2a2.76,2.76,0,0,0,1.92-.64,2.42,2.42,0,0,0,.7-1.89,2.66,2.66,0,0,0-.63-1.87,2.51,2.51,0,0,0-2-.7h-3.33v5.11Z" style="fill:#2f1391"/><path d="M147,51a.77.77,0,0,1-.21-.53V31.13a.82.82,0,0,1,.21-.53.71.71,0,0,1,.53-.22h4.08a.76.76,0,0,1,.78.74h0v7h7v-7a.76.76,0,0,1,.74-.77h4.09a.76.76,0,0,1,.77.74h0V50.44a.75.75,0,0,1-.22.53.78.78,0,0,1-.54.21h-4.06a.74.74,0,0,1-.53-.21.7.7,0,0,1-.23-.53V43.15h-7.07v7.29a.67.67,0,0,1-.22.53.74.74,0,0,1-.53.21h-4.07A.75.75,0,0,1,147,51Z" style="fill:#2f1391"/></svg>