<svg id="Layer_1" data-name="Layer 1" xmlns="http://www.w3.org/2000/svg" xmlns:xlink="http://www.w3.org/1999/xlink" viewBox="0 0 542.61 85.1"><defs><clipPath id="clip-path"><path d="M24.54,42.57A18.09,18.09,0,1,1,42.63,60.66h0A18.09,18.09,0,0,1,24.54,42.57h0m-24.42,0A42.5,42.5,0,1,0,42.62.07h0A42.56,42.56,0,0,0,.12,42.57" style="fill:none"/></clipPath><linearGradient id="linear-gradient" x1="-1851.91" y1="-1868.38" x2="-1850.69" y2="-1868.38" gradientTransform="translate(71094.56 -169946.62) rotate(-112.58) scale(70.05)" gradientUnits="userSpaceOnUse"><stop offset="0" stop-color="#477cd8"/><stop offset="0.16" stop-color="#4573d2"/><stop offset="0.43" stop-color="#3f5bc2"/><stop offset="0.76" stop-color="#3633a7"/><stop offset="1" stop-color="#2f1391"/></linearGradient><clipPath id="clip-path-2"><path d="M51.32,13.12,42.6,24.49a18.08,18.08,0,0,1,0,36.15L31.68,73.05l10.92,12a42.51,42.51,0,1,0,1.84-85c-.61,0-1.23,0-1.84,0Z" style="fill:none"/></clipPath><linearGradient id="linear-gradient-2" x1="-1860.95" y1="-1895.15" x2="-1859.73" y2="-1895.15" gradientTransform="translate(-131619.34 72886.13) rotate(105.52) scale(56.67)" gradientUnits="userSpaceOnUse"><stop offset="0" stop-color="#2055da"/><stop offset="0.11" stop-color="#2055da"/><stop offset="1" stop-color="#00bff6"/></linearGradient></defs><path d="M146.4,58.07a1.85,1.85,0,0,1,1.81,1.81v4.76a1.85,1.85,0,0,1-1.81,1.81H117a1.82,1.82,0,0,1-1.81-1.81V21.36A1.82,1.82,0,0,1,117,19.55h28.88a1.74,1.74,0,0,1,1.27.54,1.69,1.69,0,0,1,.53,1.27v4.76a1.83,1.83,0,0,1-1.8,1.81H124.2V38.58h20.2a1.82,1.82,0,0,1,1.81,1.81v4.75a1.83,1.83,0,0,1-1.8,1.86H124.2V58.12Z" style="fill:#3b62de"/><path d="M186.91,66.45a2.35,2.35,0,0,1-1.74-.6c-.4-.41-.69-.72-.87-.94L165.54,37V64.6a1.82,1.82,0,0,1-1.81,1.81h-5.42a1.82,1.82,0,0,1-1.81-1.81V21.32a1.82,1.82,0,0,1,1.81-1.81H163a2.35,2.35,0,0,1,1.74.6c.4.4.69.72.87.94L184.4,49V21.4a1.82,1.82,0,0,1,1.81-1.81h5.43a1.83,1.83,0,0,1,1.8,1.81V64.68a1.83,1.83,0,0,1-1.8,1.81Z" style="fill:#3b62de"/><path d="M202.19,36.9a21.42,21.42,0,0,1,1.47-7.33,15.83,15.83,0,0,1,3.89-5.7,17.66,17.66,0,0,1,6.27-3.68,30.44,30.44,0,0,1,18.29.2,18.88,18.88,0,0,1,6,3.62,12.45,12.45,0,0,1,3.14,4.35,13.43,13.43,0,0,1,1,3.79,1.46,1.46,0,0,1-.5,1.3,1.89,1.89,0,0,1-1.31.5H235a1.85,1.85,0,0,1-1.18-.36,2.48,2.48,0,0,1-.63-.77c-.09-.18-.33-.57-.71-1.18a7.8,7.8,0,0,0-1.8-1.87A12.6,12.6,0,0,0,227.45,28a14.17,14.17,0,0,0-5-.76,11.56,11.56,0,0,0-8,2.71,10,10,0,0,0-3.22,7.27c-.08,1.7-.13,3.52-.13,5.46s.05,3.76.13,5.46q.21,5.56,3.22,8.07a12.13,12.13,0,0,0,8,2.51,17.94,17.94,0,0,0,4.56-.53,9.48,9.48,0,0,0,3.58-1.74,8,8,0,0,0,2.35-3.19,12.55,12.55,0,0,0,.83-4.85v-.54H225.6a1.85,1.85,0,0,1-1.81-1.81V41.32a1.74,1.74,0,0,1,.54-1.27,1.69,1.69,0,0,1,1.27-.53H241a1.69,1.69,0,0,1,1.27.53,1.74,1.74,0,0,1,.54,1.27v7.37a21.23,21.23,0,0,1-1.27,7.41,15.76,15.76,0,0,1-3.82,5.83,17.72,17.72,0,0,1-6.37,3.82,29.69,29.69,0,0,1-17.75,0A16.83,16.83,0,0,1,207.4,62a15.91,15.91,0,0,1-3.79-5.8,22.57,22.57,0,0,1-1.44-7.4c0-.85-.08-1.79-.1-2.81s0-2.08,0-3.15V39.69C202.07,38.67,202.15,37.75,202.19,36.9Z" style="fill:#3b62de"/><path d="M253.11,66.45a1.85,1.85,0,0,1-1.81-1.81V21.36a1.85,1.85,0,0,1,1.81-1.81h5.43a1.85,1.85,0,0,1,1.81,1.81V64.64a1.85,1.85,0,0,1-1.81,1.81Z" style="fill:#3b62de"/><path d="M301.21,66.45a2.35,2.35,0,0,1-1.74-.6c-.4-.41-.69-.72-.87-.94L279.84,37V64.6A1.82,1.82,0,0,1,278,66.41h-5.42a1.82,1.82,0,0,1-1.81-1.81V21.32a1.82,1.82,0,0,1,1.81-1.81h4.69a2.35,2.35,0,0,1,1.74.6c.4.4.69.72.87.94l18.76,28V21.4a1.82,1.82,0,0,1,1.81-1.81h5.42a1.82,1.82,0,0,1,1.81,1.81V64.68a1.82,1.82,0,0,1-1.81,1.81Z" style="fill:#3b62de"/><path d="M349.4,58.07a1.85,1.85,0,0,1,1.81,1.81v4.76a1.85,1.85,0,0,1-1.81,1.81H320a1.85,1.85,0,0,1-1.81-1.81V21.36A1.85,1.85,0,0,1,320,19.55h28.88a1.85,1.85,0,0,1,1.81,1.81v4.76a1.85,1.85,0,0,1-1.81,1.81H327.21V38.58H347.4a1.82,1.82,0,0,1,1.81,1.81v4.75a1.72,1.72,0,0,1-.54,1.28,1.77,1.77,0,0,1-1.27.53H327.21V58.07Z" style="fill:#3b62de"/><path d="M408.48,19.55a1.85,1.85,0,0,1,1.81,1.81,1.38,1.38,0,0,1-.13.6L394.28,49.9V64.64a1.85,1.85,0,0,1-1.81,1.81h-5.36a1.83,1.83,0,0,1-1.81-1.81V49.9L369.4,22a1.38,1.38,0,0,1-.13-.6,1.69,1.69,0,0,1,.53-1.27,1.72,1.72,0,0,1,1.28-.54h5a2.75,2.75,0,0,1,2,.67,3.87,3.87,0,0,1,.8,1l10.86,19,10.85-19a3.91,3.91,0,0,1,.81-1,2.67,2.67,0,0,1,2-.67Z" style="fill:#3b62de"/><path d="M434.07,19.55a2.09,2.09,0,0,1,1.61.57,4.7,4.7,0,0,1,.94,1.71L453,64.17a1.82,1.82,0,0,1-1.75,2.28h-4.82a2.51,2.51,0,0,1-1.88-.57,3.15,3.15,0,0,1-.73-1.11L441,57.34H419.8l-2.88,7.43a3.57,3.57,0,0,1-.73,1.11,2.51,2.51,0,0,1-1.88.57h-4.83a1.74,1.74,0,0,1-1.27-.54,1.69,1.69,0,0,1-.53-1.27,1.84,1.84,0,0,1,.06-.47l16.42-42.34a4.7,4.7,0,0,1,.94-1.71,2.07,2.07,0,0,1,1.6-.57ZM437.76,49,430.4,29.87,423,49Z" style="fill:#3b62de"/><path d="M478.29,19.55q8.38,0,12.73,3.89t4.36,10.78a14.89,14.89,0,0,1-2.25,8.34,13.21,13.21,0,0,1-6.6,5.13l9.25,16.55a1.74,1.74,0,0,1,.2.74,1.49,1.49,0,0,1-1.47,1.47h-5.7a2.65,2.65,0,0,1-2-.64,4.5,4.5,0,0,1-.91-1.17L477.15,49h-8.91V64.61a1.82,1.82,0,0,1-1.81,1.81H461a1.82,1.82,0,0,1-1.81-1.81V21.33A1.82,1.82,0,0,1,461,19.52Zm-10.05,21.1H478a12,12,0,0,0,6.1-1.34c1.51-.89,2.26-2.59,2.27-5.09s-.75-4.17-2.27-5A12.48,12.48,0,0,0,478,28h-9.72Z" style="fill:#3b62de"/><path d="M522.45,19.55a25.69,25.69,0,0,1,8.61,1.31,15.73,15.73,0,0,1,9.85,9.54A26.26,26.26,0,0,1,542.48,38a91.18,91.18,0,0,1,0,9.92,26.26,26.26,0,0,1-1.57,7.64,16.74,16.74,0,0,1-3.72,5.83,16.18,16.18,0,0,1-6,3.71,24.54,24.54,0,0,1-8.41,1.31H505.9a1.83,1.83,0,0,1-1.81-1.81V21.36a1.82,1.82,0,0,1,1.81-1.81ZM533.4,38a13.35,13.35,0,0,0-.84-4,9.16,9.16,0,0,0-2.08-3.22A9.47,9.47,0,0,0,527,28.63a14.4,14.4,0,0,0-5-.76h-9V58h9.32a13,13,0,0,0,4.75-.77,9.12,9.12,0,0,0,3.35-2.11,8.78,8.78,0,0,0,2-3.21,13.66,13.66,0,0,0,.84-4A96.53,96.53,0,0,0,533.4,38Z" style="fill:#3b62de"/><g style="clip-path:url(#clip-path)"><polygon points="-30.02 12.63 72.58 -30.04 115.22 72.55 12.65 115.22 -30.02 12.63" style="fill:url(#linear-gradient)"/></g><g style="clip-path:url(#clip-path-2)"><polygon points="9.74 78.98 35.49 -13.68 107.02 6.17 81.28 98.86 9.74 78.98" style="fill:url(#linear-gradient-2)"/></g><circle cx="42.55" cy="42.55" r="42.55" transform="translate(-0.54 84.55) rotate(-89.27)" style="fill:none"/></svg>