<svg xmlns="http://www.w3.org/2000/svg" width="228" height="69" viewBox="0 0 228 69" fill="none"><path d="M15.52 62.475C17.0485 41.713 59.1524 55.1778 61.9234 25.9118C61.9691 25.4314 61.9932 24.8744 61.9932 24.3689C61.9932 10.932 48.0899 0 31.0008 0C13.9117 0 -0.398292 10.9382 0.00846346 24.3635C-0.0789448 30.4595 3.05549 35.8768 7.9607 38.1177C12.2303 40.068 16.3381 38.9255 17.5994 38.5193C16.7418 37.1387 15.8846 35.7581 15.027 34.3779C13.1964 31.4308 12.1912 27.8776 12.1969 24.3693C12.1969 13.9158 20.6322 5.4111 31.0012 5.4111C41.3702 5.4111 49.8055 13.9154 49.8055 24.3693C49.8055 24.5359 49.8021 24.7055 49.799 24.852C49.7929 25.0646 49.7817 25.2729 49.766 25.5064C49.1802 35.4995 43.8974 40.9408 31.0008 43.3274C17.4974 45.8262 0.00846346 49.4474 0.00846346 68.6591H44.3249C55.0795 68.6591 59.5956 66.5596 61.4642 60.5475C63.299 54.644 58.6038 50.009 58.6038 50.009C57.5963 52.1854 49.4037 65.1806 15.52 62.475Z" fill="#0043EF"></path><path d="M41.8185 24.3696C41.8185 25.8638 40.6072 27.0751 39.113 27.0751H30.5374C29.3117 27.0751 28.3181 26.0815 28.3181 24.8559V14.9215C28.3181 13.4394 29.5196 12.2379 31.0017 12.2379C32.4838 12.2379 33.6853 13.4394 33.6853 14.9215V20.3271C33.6853 21.0654 34.2839 21.664 35.0223 21.664H39.113C40.6072 21.664 41.8185 22.8753 41.8185 24.3696Z" fill="#0F0F11"></path><path d="M91.5375 23.4254C92.6887 22.5 93.5351 21.6535 94.0769 20.886C94.6186 20.1185 94.8895 19.2834 94.8895 18.3805C94.8895 17.2293 94.5396 16.3489 93.8399 15.7395C93.1627 15.1074 92.2485 14.7914 91.0973 14.7914C89.9912 14.7914 89.0883 15.1639 88.3886 15.9088C87.7114 16.6537 87.3728 17.6581 87.3728 18.9222V19.2946H82.4633V18.6513C82.4633 17.1615 82.8132 15.8072 83.5129 14.5883C84.2352 13.3693 85.251 12.4213 86.5602 11.7441C87.8694 11.0444 89.3818 10.6945 91.0973 10.6945C93.8737 10.6945 96.0181 11.3717 97.5305 12.726C99.0654 14.0804 99.8329 15.8975 99.8329 18.1773C99.8329 19.8025 99.4266 21.2133 98.614 22.4097C97.8239 23.5834 96.5937 24.8475 94.9233 26.2019L89.6075 30.5358H99.9345V34.6327H82.5649V30.8744L91.5375 23.4254Z" fill="#0F0F11"></path><path d="M110.777 10.9315H115.856V20.4458H125.268V10.9315H130.347V34.6327H125.268V24.8475H115.856V34.6327H110.777V10.9315Z" fill="#0F0F11"></path><path d="M142.173 34.8359C140.344 34.8359 138.731 34.4747 137.331 33.7524C135.954 33.0075 134.882 31.9579 134.114 30.6035C133.37 29.2492 132.997 27.6916 132.997 25.931C132.997 24.1703 133.37 22.6128 134.114 21.2585C134.882 19.9041 135.954 18.8658 137.331 18.1434C138.731 17.3986 140.344 17.0261 142.173 17.0261C144.001 17.0261 145.604 17.3986 146.981 18.1434C148.38 18.8658 149.453 19.9041 150.197 21.2585C150.965 22.6128 151.349 24.1703 151.349 25.931C151.349 27.7142 150.965 29.283 150.197 30.6374C149.453 31.9691 148.38 33.0075 146.981 33.7524C145.604 34.4747 144.001 34.8359 142.173 34.8359ZM142.173 30.9421C143.505 30.9421 144.554 30.4794 145.322 29.5539C146.112 28.6284 146.507 27.4208 146.507 25.931C146.507 24.4412 146.112 23.2336 145.322 22.3081C144.554 21.3826 143.505 20.9199 142.173 20.9199C140.864 20.9199 139.814 21.3826 139.024 22.3081C138.257 23.2336 137.873 24.4412 137.873 25.931C137.873 27.4208 138.257 28.6284 139.024 29.5539C139.814 30.4794 140.864 30.9421 142.173 30.9421Z" fill="#0F0F11"></path><path d="M170.025 17.2293V34.6327H165.793L165.353 32.5335C164.743 33.2558 164.032 33.8201 163.22 34.2264C162.407 34.6327 161.414 34.8359 160.24 34.8359C158.209 34.8359 156.55 34.2151 155.263 32.9736C153.976 31.7096 153.333 29.6103 153.333 26.6759V17.2293H158.107V26.1003C158.107 27.6804 158.378 28.8767 158.92 29.6893C159.484 30.4794 160.342 30.8744 161.493 30.8744C162.689 30.8744 163.615 30.4342 164.269 29.5539C164.924 28.651 165.251 27.3982 165.251 25.7956V17.2293H170.025Z" fill="#0F0F11"></path><path d="M183.604 17.2293V21.5632H181.708C180.353 21.5632 179.36 21.9695 178.728 22.7821C178.096 23.5947 177.78 24.7008 177.78 26.1003V34.6327H173.006V17.2293H177.34L177.78 19.8364C178.299 18.9786 178.943 18.3353 179.71 17.9064C180.478 17.455 181.505 17.2293 182.791 17.2293H183.604Z" fill="#0F0F11"></path><path d="M83.5468 61.9104V38.2092H88.6256V57.5426H98.0384V61.9104H83.5468Z" fill="#0F0F11"></path><path d="M98.8565 53.2425C98.8565 51.4367 99.2177 49.8679 99.94 48.5361C100.685 47.1818 101.712 46.1434 103.021 45.4211C104.353 44.6762 105.888 44.3037 107.626 44.3037C109.387 44.3037 110.933 44.6536 112.265 45.3534C113.619 46.0306 114.669 47.0012 115.414 48.2652C116.181 49.5067 116.576 50.9739 116.599 52.6669C116.599 53.2763 116.553 53.8181 116.463 54.2921H103.834V54.4276C103.947 55.6916 104.353 56.6848 105.053 57.4071C105.752 58.1295 106.712 58.4906 107.931 58.4906C108.901 58.4906 109.703 58.2875 110.335 57.8812C110.989 57.4523 111.418 56.8315 111.621 56.0189H116.328C116.147 57.1701 115.707 58.2085 115.007 59.1339C114.307 60.0594 113.382 60.793 112.231 61.3348C111.08 61.8539 109.759 62.1135 108.269 62.1135C106.328 62.1135 104.646 61.7523 103.224 61.03C101.825 60.3077 100.741 59.2807 99.9739 57.9489C99.229 56.5945 98.8565 55.0257 98.8565 53.2425ZM111.824 51.1771C111.666 50.1162 111.226 49.3036 110.504 48.7393C109.804 48.1524 108.913 47.8589 107.829 47.8589C106.791 47.8589 105.91 48.1637 105.188 48.7731C104.488 49.36 104.071 50.1613 103.935 51.1771H111.824Z" fill="#0F0F11"></path><path d="M136.002 57.8812V61.9104H133.564C131.374 61.9104 130.302 60.9623 130.347 59.0662C129.715 60.0594 128.936 60.8156 128.011 61.3348C127.085 61.8539 125.968 62.1135 124.659 62.1135C122.718 62.1135 121.149 61.6733 119.952 60.793C118.779 59.8901 118.192 58.626 118.192 57.0008C118.192 55.1499 118.869 53.7278 120.223 52.7346C121.6 51.7188 123.587 51.211 126.182 51.211H129.636V50.3645C129.636 49.5744 129.343 48.9537 128.756 48.5023C128.169 48.0282 127.379 47.7912 126.386 47.7912C125.505 47.7912 124.783 47.9831 124.219 48.3668C123.654 48.7505 123.316 49.2697 123.203 49.9243H118.598C118.756 48.1411 119.546 46.7642 120.968 45.7935C122.39 44.8003 124.275 44.3037 126.623 44.3037C129.083 44.3037 130.979 44.8455 132.311 45.929C133.665 47.0125 134.342 48.5813 134.342 50.6354V56.7638C134.342 57.1927 134.433 57.4861 134.613 57.6441C134.794 57.8022 135.076 57.8812 135.46 57.8812H136.002ZM129.636 54.3937H126.149C125.155 54.3937 124.377 54.5968 123.812 55.0032C123.271 55.3869 123 55.9399 123 56.6622C123 57.2717 123.225 57.757 123.677 58.1182C124.151 58.4793 124.783 58.6599 125.573 58.6599C126.815 58.6599 127.796 58.31 128.519 57.6103C129.241 56.888 129.614 55.9286 129.636 54.7323V54.3937Z" fill="#0F0F11"></path><path d="M148.108 44.5069V48.8408H146.212C144.857 48.8408 143.864 49.2471 143.232 50.0598C142.6 50.8724 142.284 51.9784 142.284 53.3779V61.9104H137.51V44.5069H141.844L142.284 47.114C142.803 46.2563 143.446 45.613 144.214 45.1841C144.981 44.7326 146.008 44.5069 147.295 44.5069H148.108Z" fill="#0F0F11"></path><path d="M159.89 44.3037C161.921 44.3037 163.592 44.9358 164.901 46.1998C166.21 47.4639 166.865 49.5519 166.865 52.4637V61.9104H162.091V52.7346C162.091 49.7325 160.917 48.2314 158.569 48.2314C157.328 48.2314 156.368 48.649 155.691 49.4842C155.014 50.3193 154.676 51.4931 154.676 53.0055V61.9104H149.901V44.5069H154.066L154.506 46.6739C155.116 45.929 155.849 45.3534 156.707 44.9471C157.565 44.5182 158.626 44.3037 159.89 44.3037Z" fill="#0F0F11"></path><path d="M171.938 37.2611C172.728 37.2611 173.383 37.5207 173.902 38.0399C174.421 38.5365 174.681 39.1685 174.681 39.936C174.681 40.7034 174.421 41.3467 173.902 41.8659C173.383 42.3851 172.728 42.6447 171.938 42.6447C171.148 42.6447 170.482 42.3851 169.941 41.8659C169.421 41.3467 169.162 40.7034 169.162 39.936C169.162 39.1685 169.421 38.5365 169.941 38.0399C170.482 37.5207 171.148 37.2611 171.938 37.2611ZM169.534 44.5069H174.308V61.9104H169.534V44.5069Z" fill="#0F0F11"></path><path d="M187.285 44.3037C189.317 44.3037 190.987 44.9358 192.296 46.1998C193.605 47.4639 194.26 49.5519 194.26 52.4637V61.9104H189.486V52.7346C189.486 49.7325 188.312 48.2314 185.965 48.2314C184.723 48.2314 183.764 48.649 183.087 49.4842C182.409 50.3193 182.071 51.4931 182.071 53.0055V61.9104H177.297V44.5069H181.461L181.901 46.6739C182.511 45.929 183.245 45.3534 184.102 44.9471C184.96 44.5182 186.021 44.3037 187.285 44.3037Z" fill="#0F0F11"></path><path d="M214.333 44.5069V61.4025C214.333 63.6823 213.577 65.4994 212.064 66.8538C210.552 68.2081 208.205 68.8853 205.022 68.8853C202.561 68.8853 200.575 68.3435 199.063 67.2601C197.55 66.1766 196.738 64.6416 196.625 62.6553H201.433C201.658 63.4904 202.099 64.1338 202.753 64.5852C203.43 65.0367 204.311 65.2624 205.394 65.2624C206.749 65.2624 207.798 64.9238 208.543 64.2466C209.288 63.5694 209.66 62.565 209.66 61.2332V59.4048C208.396 61.0075 206.602 61.8088 204.277 61.8088C202.742 61.8088 201.365 61.4476 200.146 60.7253C198.927 60.003 197.968 58.9872 197.268 57.678C196.591 56.3462 196.252 54.8 196.252 53.0393C196.252 51.3013 196.591 49.7663 197.268 48.4345C197.968 47.1027 198.927 46.0757 200.146 45.3534C201.388 44.6311 202.776 44.2699 204.311 44.2699C206.591 44.2699 208.396 45.1502 209.728 46.9109L210.134 44.5069H214.333ZM205.394 57.9827C206.681 57.9827 207.708 57.5313 208.475 56.6284C209.243 55.7255 209.627 54.5517 209.627 53.1071C209.627 51.6398 209.243 50.4435 208.475 49.518C207.708 48.5925 206.681 48.1298 205.394 48.1298C204.108 48.1298 203.069 48.5925 202.279 49.518C201.512 50.4209 201.128 51.606 201.128 53.0732C201.128 54.5404 201.512 55.7255 202.279 56.6284C203.069 57.5313 204.108 57.9827 205.394 57.9827Z" fill="#0F0F11"></path><path d="M219.01 42.272H222.573V43.1018H221.274V46.7747H220.309V43.1018H219.01V42.272Z" fill="#0F0F11"></path><path d="M223.034 42.272H224.301L225.549 45.5783L226.759 42.272H228V46.7747H227.08V43.7579L225.909 46.7747H225.125L223.954 43.7579V46.7747H223.034V42.272Z" fill="#0F0F11"></path></svg>