<svg id="layer" xmlns="http://www.w3.org/2000/svg" viewBox="0 0 294 136.73"><path d="M280.14,1.81c.1,1.86-57.67,20.53-130,20.29C77.77,22.34,20,3.67,20.1,1.81c0-2.3,57.67,5.73,130.05,5.54C222.47,7.59,280.24-.39,280.14,1.81Z" transform="translate(-3 -1.4)" style="fill:#0091d1"/><path d="M37.74,109.27C34,112,25.59,117.16,17.11,117.16,6.28,117.16,3,110.3,3,102V66.39h7.84v34.06c0,5.83,1.86,10.34,8.67,10.34s14.8-5.15,18.23-8.19V66.34h7.89v49.89H37.74ZM69,73.89a26.26,26.26,0,0,1,17.54-7.5c10.59,0,19,7.6,19,26s-8.48,25.92-19,25.92A25.92,25.92,0,0,1,69,110.79v27.34H61.16V67.47h7.89Zm0,29.89a22.45,22.45,0,0,0,16.07,7.89c8.29,0,12.5-7.35,12.5-19.36s-4.26-19.45-12.5-19.45a21.86,21.86,0,0,0-16,8.09Zm50.28,12.64h7.79V45.86h-7.79ZM175,110.64a27.46,27.46,0,0,1-18.52,7.69c-8.14,0-16.66-4.46-16.66-15.92S148,86.14,157.1,86.14c5.79,0,14.07,2,17.94,2.65V83.15c0-7-2.26-10.44-10.44-10.44-5.53,0-11.61,1.87-18.52,4.17l-2.84-5.78a67.5,67.5,0,0,1,22.39-4.76c10.93,0,17.3,4.56,17.3,16.57v34.3H175Zm0-17.1a86.06,86.06,0,0,0-15-2.21c-9.22,0-12.16,5-12.16,10.64,0,7,4.46,9.75,10.54,9.75,6.76,0,12.05-3.09,16.56-7.35Zm30.82-19.06c3.68-2.8,12.05-8.09,20.48-8.09,11,0,14.26,7,14.26,15.39v35.43h-7.84v-34c0-5.78-1.86-10.34-8.67-10.34s-14.9,5.19-18.23,8.18v36.17H198V67.42h7.84Zm83.35,41.94V110a25.7,25.7,0,0,1-17.54,7.5c-10.54,0-19-7.59-19-25.87s8.48-26,19-26a26,26,0,0,1,17.54,7.59V46H297v70.51Zm0-36.26a22.24,22.24,0,0,0-16-8.08c-8.24,0-12.5,7.35-12.5,19.45s4.26,19.35,12.5,19.35c6.27,0,12.05-3.67,16-8Z" transform="translate(-3 -1.4)" style="fill:#2a3941"/></svg>